Coordinates
version=1
nRows=10
nColumns=40
inDegrees=yes

Units are S.I. units (second, meters, Newtons, ...)
Angles are in degrees.

endheader
time	pelvis_tilt	pelvis_list	pelvis_rotation	pelvis_tx	pelvis_ty	pelvis_tz	hip_flexion_r	hip_adduction_r	hip_rotation_r	knee_angle_r	knee_angle_r_beta	ankle_angle_r	subtalar_angle_r	mtp_angle_r	hip_flexion_l	hip_adduction_l	hip_rotation_l	knee_angle_l	knee_angle_l_beta	ankle_angle_l	subtalar_angle_l	mtp_angle_l	lumbar_extension	lumbar_bending	lumbar_rotation	arm_flex_r	arm_add_r	arm_rot_r	elbow_flex_r	pro_sup_r	wrist_flex_r	wrist_dev_r	arm_flex_l	arm_add_l	arm_rot_l	elbow_flex_l	pro_sup_l	wrist_flex_l	wrist_dev_l
     11.72000000	     -5.25746180	     -6.72769010	      3.87254535	      1.03721176	      0.90917567	      0.46497083	     -2.42849507	      4.33053876	    -17.72994015	     10.40522341	     10.40522341	     19.07785681	      2.26229193	     -3.45603500	     35.16743162	     -8.47146764	      2.30233400	     24.69233135	     24.69233135	      4.07946883	    -14.22372719	      8.11919576	    -10.07678461	      5.32288568	      4.21284879	     52.35820667	    -11.96447492	     -0.40574521	     97.99225003	     44.20283442	      0.00000000	      0.00000000	    -15.90656047	     -6.27598585	      5.68797872	     23.61591966	     45.20207026	      0.00000000	      0.00000000
     11.73157143	     -5.30743619	     -6.58209592	      3.52795371	      1.03968049	      0.90761815	      0.46287958	     -3.00804486	      3.95959402	    -17.34714131	     10.66399765	     10.66399765	     19.46048880	      2.31511139	     -3.43650436	     34.99454138	     -8.44348880	      1.84847283	     25.74691769	     25.74691769	      3.50704797	    -14.89641242	      8.00362579	     -9.79399238	      5.08578123	      4.44013810	     53.51185064	    -11.95449818	     -0.47688422	     98.61304232	     44.19480726	      0.00000000	      0.00000000	    -17.01266365	     -6.25255635	      5.75853509	     23.41979647	     45.16606292	      0.00000000	      0.00000000
     11.74314286	     -5.38486889	     -6.47458367	      3.29641476	      1.04187161	      0.90617324	      0.46050847	     -3.17196474	      3.51439674	    -17.07001817	     11.66042722	     11.66042722	     20.11719870	      1.99288427	     -2.79656743	     34.91014637	     -8.33268144	      1.73692943	     26.83008205	     26.83008205	      2.73063067	    -15.83253824	      7.20688309	     -9.56909224	      4.97738942	      4.19687722	     54.42636705	    -11.48692503	      0.00479535	    100.34134847	     44.15768904	      0.00000000	      0.00000000	    -18.51863366	     -6.27019014	      6.15564080	     24.29331748	     45.04913588	      0.00000000	      0.00000000
     11.75471429	     -5.32234591	     -6.31999667	      3.09118548	      1.04406702	      0.90540587	      0.45791084	     -3.64017861	      3.04884753	    -16.83476387	     12.30061386	     12.30061386	     20.32835370	      1.84765374	     -2.76009644	     34.69178703	     -8.17797605	      1.60327835	     28.01804555	     28.01804555	      2.65136563	    -16.36801105	      7.00659657	     -9.49205018	      4.81702243	      4.24751851	     55.21660156	    -11.40139336	     -0.01026700	    101.04619606	     44.14584125	      0.00000000	      0.00000000	    -19.32243471	     -6.18298103	      6.26460757	     24.22968855	     45.01358221	      0.00000000	      0.00000000
     11.76628571	     -5.33802832	     -6.15756782	      2.96403729	      1.04584773	      0.90490634	      0.45500235	     -3.66931047	      2.45248935	    -16.63147656	     13.57580835	     13.57580835	     20.54185242	      1.42068441	     -2.78838839	     34.52896107	     -7.92897079	      1.60821168	     29.09361310	     29.09361310	      2.84887662	    -16.74740775	      6.90468972	     -9.42208109	      4.74659625	      4.11230779	     55.74804919	    -11.09539293	      0.15481889	    102.32771052	     44.11283348	      0.00000000	      0.00000000	    -20.04933173	     -6.05940474	      6.42095278	     24.33423499	     44.97023895	      0.00000000	      0.00000000
     11.77785714	     -5.24996342	     -5.96533165	      2.83112599	      1.04764940	      0.90510339	      0.45198154	     -3.84215198	      1.83095152	    -16.43279179	     14.74961459	     14.74961459	     20.46943940	      1.07573154	     -2.86457541	     34.16586106	     -7.65350046	      1.51877663	     30.03756280	     30.03756280	      3.32833480	    -17.10089461	      6.84267436	     -9.46567961	      4.56193774	      3.91509409	     55.86563128	    -11.06890008	      0.20158824	    103.21798509	     44.09083223	      0.00000000	      0.00000000	    -20.50425426	     -5.95942106	      6.52170048	     24.36074655	     44.94344452	      0.00000000	      0.00000000
     11.78942857	     -5.24217397	     -5.75874752	      2.77647869	      1.04898048	      0.90561399	      0.44867407	     -3.53396675	      1.06273066	    -16.26330533	     16.61645369	     16.61645369	     20.35642796	      0.48946653	     -3.19121429	     33.80282041	     -7.29656543	      1.46573680	     30.75287268	     30.75287268	      4.00678926	    -17.24974652	      7.01050319	     -9.52140625	      4.45928222	      3.71928183	     55.81372972	    -10.96380933	      0.31493826	    104.59274347	     44.05347354	      0.00000000	      0.00000000	    -20.71285499	     -5.84605584	      6.65243466	     24.47772830	     44.91659024	      0.00000000	      0.00000000
     11.80100000	     -5.42158449	     -5.52086099	      2.74945759	      1.05004660	      0.90640530	      0.44516178	     -2.88771136	      0.20941039	    -16.13336305	     18.66212304	     18.66212304	     19.84946386	     -0.27263135	     -4.10594823	     33.55898403	     -6.81477979	      1.52169919	     31.30829089	     31.30829089	      5.23031291	    -17.28690400	      8.55495636	     -9.39206875	      4.32970301	      4.05894197	     54.88877148	    -11.65648990	      0.16431996	    107.23710289	     44.00754243	      0.00000000	      0.00000000	    -20.55275326	     -5.92691602	      7.05922145	     24.80839188	     44.85386142	      0.00000000	      0.00000000
     11.81257143	     -5.30337745	     -5.31009556	      2.74390338	      1.05106879	      0.90801391	      0.44159801	     -2.50730164	     -0.63113643	    -16.01549870	     20.76753413	     20.76753413	     19.21433418	     -0.82558003	     -4.72074839	     32.81574970	     -6.43197707	      1.35555073	     31.51369088	     31.51369088	      6.06001426	    -17.23572429	      8.69354210	     -9.60522562	      4.26486609	      3.84425640	     54.42516304	    -11.62962775	      0.16185909	    108.04198383	     43.99150521	      0.00000000	      0.00000000	    -20.29644178	     -5.81629427	      7.23751272	     24.79538098	     44.83160196	      0.00000000	      0.00000000
     11.82414286	     -5.37829732	     -5.14015430	      2.79835291	      1.05173526	      0.90971122	      0.43791677	     -1.79152217	     -1.45013041	    -15.86756814	     22.92701571	     22.92701571	     17.46572768	     -1.95896473	     -8.01321688	     32.24629723	     -5.98410887	      1.39567458	     31.60521496	     31.60521496	      7.35502512	    -17.09914364	     10.49294389	     -9.66994372	      4.26556530	      4.43772699	     52.85317146	    -12.67985133	     -0.49498187	    110.77107836	     43.98837064	      0.00000000	      0.00000000	    -19.34712397	     -5.95150395	      8.08918695	     24.56883694	     44.73021803	      0.00000000	      0.00000000
